<svg xmlns="http://www.w3.org/2000/svg" xmlns:xlink="http://www.w3.org/1999/xlink" width="1360" height="1760"><g transform="translate(0 0)"><path d="M528 340c17.67 0 32 17.9 32 40s-14.33 40-32 40h-96c-17.67 0-32-17.9-32-40s14.33-40 32-40z" stroke="#000" stroke-width="2" fill="#fff"/><use xlink:href="#a" transform="matrix(1,0,0,1,416,340) translate(4.599999999999994 43.6)"/><path d="M688 160c17.67 0 32 17.9 32 40s-14.33 40-32 40h-96c-17.67 0-32-17.9-32-40s14.33-40 32-40z" stroke="#000" stroke-width="2" fill="#fff"/><use xlink:href="#b" transform="matrix(1,0,0,1,576,160) translate(21.074999999999996 43.6)"/><path d="M528 540c17.67 0 32 17.9 32 40s-14.33 40-32 40h-96c-17.67 0-32-17.9-32-40s14.33-40 32-40z" stroke="#000" stroke-width="2" fill="#fff"/><use xlink:href="#c" transform="matrix(1,0,0,1,416,540) translate(40.224999999999994 43.6)"/><path d="M848 340c17.67 0 32 17.9 32 40s-14.33 40-32 40h-96c-17.67 0-32-17.9-32-40s14.33-40 32-40z" stroke="#000" stroke-width="2" fill="#fff"/><use xlink:href="#d" transform="matrix(1,0,0,1,736,340) translate(25.549999999999997 43.6)"/><path d="M480 340l.15-6.16 1-14.84 2.58-23.9 3.26-21.84 2.93-15.17 2.38-10 1.92-6.74 1.54-4.67 1.27-3.36 1.06-2.47.9-1.88.77-1.46.68-1.15.6-.92.53-.75.48-.62.43-.5.4-.43.13-.14 5-4.57 5.38-4.13 5.77-3.66 6.1-3.16 6.42-2.63 6.72-2.1 7.03-1.54 7.32-.93 7.23-.3" stroke="#000" stroke-width="2" fill="none"/><path d="M480 340h-1v-.05zM560 200l-13.8 5.87-.82-9.23z"/><path d="M560.06 199l-.06 1 .04 1.07-14.72 6.26-1.05-11.98zm-13 5.4l9.72-4.12-10.28-2.36z"/><path fill="#fff" d="M465.35 250.43h47.96v21.6h-47.95z"/><use xlink:href="#e" transform="matrix(1,0,0,1,465.34542439299247,250.4260265329309) translate(0 14.4)"/><path d="M720 200l7.6.33 7.32.97 7 1.56 6.73 2.13 6.4 2.66 6.1 3.2 5.72 3.67 5.37 4.15 4.73 4.35.4.4.4.48.47.58.5.7.58.85.65 1.05.74 1.33.86 1.7 1 2.24 1.18 2.98 1.43 4.1 1.76 5.86 2.2 8.6 2.72 13 3.2 19.36 3.02 24.4 1.56 19 .36 8.7V340" stroke="#000" stroke-width="2" fill="none"/><path d="M720.1 199l-.1 1.03V200l-.04-1zM800 340l-5.34-14.02 9.26-.46z"/><path d="M801.04 340h-2.1l-5.7-14.95 12-.6zm-4.96-13.1l3.76 9.87 2.75-10.18z"/><path fill="#fff" d="M763.97 238.43h47.96v21.6h-47.96z"/><use xlink:href="#e" transform="matrix(1,0,0,1,763.9654928933082,238.4329811056145) translate(0 14.4)"/><path d="M848 540c17.67 0 32 17.9 32 40s-14.33 40-32 40h-96c-17.67 0-32-17.9-32-40s14.33-40 32-40z" stroke="#000" stroke-width="2" fill="#fff"/><use xlink:href="#f" transform="matrix(1,0,0,1,736,540) translate(42.525 43.6)"/><path d="M800 420v120" stroke="#000" stroke-width="2" fill="none"/><path d="M801 420h-2 2zM800 540l-4.64-14.27h9.28z"/><path d="M801.05 540h-2.1L794 524.73h12zm-4.3-13.27l3.25 10.03 3.26-10.03z"/><path fill="#fff" d="M761.52 451.2h76.96v21.6h-76.96z"/><use xlink:href="#g" transform="matrix(1,0,0,1,761.525,451.1999999999999) translate(0 14.4)"/><use xlink:href="#h" transform="matrix(1,0,0,1,761.525,451.1999999999999) translate(37.95 14.4)"/><path d="M720 580H560" stroke="#000" stroke-width="2" fill="none"/><path d="M720 580l.04 1H720v-2h.06zM574.27 584.64L560 580l14.27-4.64z"/><path d="M575.27 586l-15.33-4.97.06-1.03-.04-1.04 15.3-4.97zm-12.03-6l10.03 3.26v-6.52z"/><path d="M480 540V421" stroke="#000" stroke-width="2" fill="none"/><path d="M481 540h-2 2zM484.64 435.27h-9.28L480 421z"/><path d="M486 436.27h-12l5.27-16.27h1.46zm-9.26-2h6.52L480 424.24z"/><path fill="#fff" d="M418.6 469.7h122.8v21.6H418.6z"/><use xlink:href="#i" transform="matrix(1,0,0,1,418.6,469.6995537522312) translate(0 14.4)"/><use xlink:href="#j" transform="matrix(1,0,0,1,418.6,469.6995537522312) translate(39.95 14.4)"/><path d="M348 160c17.67 0 32 17.9 32 40s-14.33 40-32 40h-96c-17.67 0-32-17.9-32-40s14.33-40 32-40z" stroke="#000" stroke-width="2" fill="#fff"/><use xlink:href="#k" transform="matrix(1,0,0,1,236,160) translate(14.049999999999997 43.6)"/><use xlink:href="#l" transform="matrix(1,0,0,1,236,160) translate(84.95 43.6)"/><path d="M400 380l-4.1-.1-3.9-.23-3.78-.4-3.64-.53-3.5-.67-3.43-.8-3.32-.93-3.24-1.05-3.17-1.2-3.1-1.3-3.05-1.43-3-1.57-2.96-1.7-2.93-1.86-2.9-2.02-2.87-2.17-2.85-2.36-2.83-2.56-2.8-2.75-2.8-3-2.8-3.22-2.76-3.5-2.76-3.78-2.73-4.1-2.68-4.45-2.65-4.83-2.6-5.23-2.52-5.67-2.42-6.13-2.3-6.62-2.15-7.12-1.96-7.62-1.72-8.1-1.45-8.58-1.13-8.96-.77-9.27-.4-9.47L300 240" stroke="#000" stroke-width="2" fill="none"/><path d="M400 380l.04 1h-.12l.1-1.12zM305.12 254.1l-9.27.32L300 240z"/><path d="M306.53 255.05l-12.02.4 4.46-15.45h2.1zm-9.34-1.68l6.5-.22-3.6-9.92z"/><path d="M380 200l89.5 1.07L559 200" stroke="#000" stroke-width="2" fill="none"/><path d="M380 199v2h-.06l.06-1-.04-1zM559 200l-14.2 4.8-.12-9.26z"/><path d="M560.04 199.28l-.04.72.03.7-16.22 5.5-.14-12.03zm-14.27 4.14l10-3.38-10.07-3.14z"/><path fill="#fff" d="M457.1 190.14h47.96v21.6H457.1z"/><g><use xlink:href="#e" transform="matrix(1,0,0,1,457.1002227207185,190.13510762571835) translate(0 14.4)"/></g><defs><path d="M205 0l-28-72H64L36 0H1l101-248h38L239 0h-34zm-38-99l-47-123c-12 45-31 82-46 123h93" id="m"/><path d="M96-169c-40 0-48 33-48 73s9 75 48 75c24 0 41-14 43-38l32 2c-6 37-31 61-74 61-59 0-76-41-82-99-10-93 101-131 147-64 4 7 5 14 7 22l-32 3c-4-21-16-35-41-35" id="n"/><path d="M59-47c-2 24 18 29 38 22v24C64 9 27 4 27-40v-127H5v-23h24l9-43h21v43h35v23H59v120" id="o"/><path d="M24-231v-30h32v30H24zM24 0v-190h32V0H24" id="p"/><path d="M100-194c62-1 85 37 85 99 1 63-27 99-86 99S16-35 15-95c0-66 28-99 85-99zM99-20c44 1 53-31 53-75 0-43-8-75-51-75s-53 32-53 75 10 74 51 75" id="q"/><path d="M117-194c89-4 53 116 60 194h-32v-121c0-31-8-49-39-48C34-167 62-67 57 0H25l-1-190h30c1 10-1 24 2 32 11-22 29-35 61-36" id="r"/><path d="M212-179c-10-28-35-45-73-45-59 0-87 40-87 99 0 60 29 101 89 101 43 0 62-24 78-52l27 14C228-24 195 4 139 4 59 4 22-46 18-125c-6-104 99-153 187-111 19 9 31 26 39 46" id="s"/><path d="M114-163C36-179 61-72 57 0H25l-1-190h30c1 12-1 29 2 39 6-27 23-49 58-41v29" id="t"/><path d="M100-194c63 0 86 42 84 106H49c0 40 14 67 53 68 26 1 43-12 49-29l28 8c-11 28-37 45-77 45C44 4 14-33 15-96c1-61 26-98 85-98zm52 81c6-60-76-77-97-28-3 7-6 17-6 28h103" id="u"/><path d="M141-36C126-15 110 5 73 4 37 3 15-17 15-53c-1-64 63-63 125-63 3-35-9-54-41-54-24 1-41 7-42 31l-33-3c5-37 33-52 76-52 45 0 72 20 72 64v82c-1 20 7 32 28 27v20c-31 9-61-2-59-35zM48-53c0 20 12 33 32 33 41-3 63-29 60-74-43 2-92-5-92 41" id="v"/><path d="M135-143c-3-34-86-38-87 0 15 53 115 12 119 90S17 21 10-45l28-5c4 36 97 45 98 0-10-56-113-15-118-90-4-57 82-63 122-42 12 7 21 19 24 35" id="w"/><g id="a"><use transform="matrix(0.05,0,0,0.05,0,0)" xlink:href="#m"/><use transform="matrix(0.05,0,0,0.05,12,0)" xlink:href="#n"/><use transform="matrix(0.05,0,0,0.05,21,0)" xlink:href="#o"/><use transform="matrix(0.05,0,0,0.05,26,0)" xlink:href="#p"/><use transform="matrix(0.05,0,0,0.05,29.950000000000003,0)" xlink:href="#q"/><use transform="matrix(0.05,0,0,0.05,39.95,0)" xlink:href="#r"/><use transform="matrix(0.05,0,0,0.05,49.95,0)" xlink:href="#s"/><use transform="matrix(0.05,0,0,0.05,62.900000000000006,0)" xlink:href="#t"/><use transform="matrix(0.05,0,0,0.05,68.85000000000001,0)" xlink:href="#u"/><use transform="matrix(0.05,0,0,0.05,78.85000000000001,0)" xlink:href="#v"/><use transform="matrix(0.05,0,0,0.05,88.85000000000001,0)" xlink:href="#o"/><use transform="matrix(0.05,0,0,0.05,93.85000000000001,0)" xlink:href="#q"/><use transform="matrix(0.05,0,0,0.05,103.85000000000001,0)" xlink:href="#t"/><use transform="matrix(0.05,0,0,0.05,109.80000000000001,0)" xlink:href="#w"/></g><path d="M30-248c118-7 216 8 213 122C240-48 200 0 122 0H30v-248zM63-27c89 8 146-16 146-99s-60-101-146-95v194" id="x"/><path d="M115-194c55 1 70 41 70 98S169 2 115 4C84 4 66-9 55-30l1 105H24l-1-265h31l2 30c10-21 28-34 59-34zm-8 174c40 0 45-34 45-75s-6-73-45-74c-42 0-51 32-51 76 0 43 10 73 51 73" id="y"/><path d="M106-169C34-169 62-67 57 0H25v-261h32l-1 103c12-21 28-36 61-36 89 0 53 116 60 194h-32v-121c2-32-8-49-39-48" id="z"/><g id="b"><use transform="matrix(0.05,0,0,0.05,0,0)" xlink:href="#x"/><use transform="matrix(0.05,0,0,0.05,12.950000000000001,0)" xlink:href="#p"/><use transform="matrix(0.05,0,0,0.05,16.900000000000002,0)" xlink:href="#w"/><use transform="matrix(0.05,0,0,0.05,25.900000000000002,0)" xlink:href="#y"/><use transform="matrix(0.05,0,0,0.05,35.900000000000006,0)" xlink:href="#v"/><use transform="matrix(0.05,0,0,0.05,45.900000000000006,0)" xlink:href="#o"/><use transform="matrix(0.05,0,0,0.05,50.900000000000006,0)" xlink:href="#n"/><use transform="matrix(0.05,0,0,0.05,59.900000000000006,0)" xlink:href="#z"/><use transform="matrix(0.05,0,0,0.05,69.9,0)" xlink:href="#u"/><use transform="matrix(0.05,0,0,0.05,79.9,0)" xlink:href="#t"/></g><path d="M137 0h-34L2-248h35l83 218 83-218h36" id="A"/><path d="M206 0h-36l-40-164L89 0H53L-1-190h32L70-26l43-164h34l41 164 42-164h31" id="B"/><g id="c"><use transform="matrix(0.05,0,0,0.05,0,0)" xlink:href="#A"/><use transform="matrix(0.05,0,0,0.05,11.65,0)" xlink:href="#p"/><use transform="matrix(0.05,0,0,0.05,15.600000000000001,0)" xlink:href="#u"/><use transform="matrix(0.05,0,0,0.05,25.6,0)" xlink:href="#B"/><use transform="matrix(0.05,0,0,0.05,38.550000000000004,0)" xlink:href="#w"/></g><path d="M233-177c-1 41-23 64-60 70L243 0h-38l-65-103H63V0H30v-248c88 3 205-21 203 71zM63-129c60-2 137 13 137-47 0-61-80-42-137-45v92" id="C"/><path d="M85-194c31 0 48 13 60 33l-1-100h32l1 261h-30c-2-10 0-23-3-31C134-8 116 4 85 4 32 4 16-35 15-94c0-66 23-100 70-100zm9 24c-40 0-46 34-46 75 0 40 6 74 45 74 42 0 51-32 51-76 0-42-9-74-50-73" id="D"/><path d="M84 4C-5 8 30-112 23-190h32v120c0 31 7 50 39 49 72-2 45-101 50-169h31l1 190h-30c-1-10 1-25-2-33-11 22-28 36-60 37" id="E"/><g id="d"><use transform="matrix(0.05,0,0,0.05,0,0)" xlink:href="#C"/><use transform="matrix(0.05,0,0,0.05,12.950000000000001,0)" xlink:href="#u"/><use transform="matrix(0.05,0,0,0.05,22.950000000000003,0)" xlink:href="#D"/><use transform="matrix(0.05,0,0,0.05,32.95,0)" xlink:href="#E"/><use transform="matrix(0.05,0,0,0.05,42.95,0)" xlink:href="#n"/><use transform="matrix(0.05,0,0,0.05,51.95,0)" xlink:href="#u"/><use transform="matrix(0.05,0,0,0.05,61.95,0)" xlink:href="#t"/><use transform="matrix(0.05,0,0,0.05,67.9,0)" xlink:href="#w"/></g><g id="e"><use transform="matrix(0.05,0,0,0.05,0,0)" xlink:href="#v"/><use transform="matrix(0.05,0,0,0.05,10,0)" xlink:href="#n"/><use transform="matrix(0.05,0,0,0.05,19,0)" xlink:href="#o"/><use transform="matrix(0.05,0,0,0.05,24,0)" xlink:href="#p"/><use transform="matrix(0.05,0,0,0.05,27.950000000000003,0)" xlink:href="#q"/><use transform="matrix(0.05,0,0,0.05,37.95,0)" xlink:href="#r"/></g><path d="M185-189c-5-48-123-54-124 2 14 75 158 14 163 119 3 78-121 87-175 55-17-10-28-26-33-46l33-7c5 56 141 63 141-1 0-78-155-14-162-118-5-82 145-84 179-34 5 7 8 16 11 25" id="F"/><g id="f"><use transform="matrix(0.05,0,0,0.05,0,0)" xlink:href="#F"/><use transform="matrix(0.05,0,0,0.05,12,0)" xlink:href="#o"/><use transform="matrix(0.05,0,0,0.05,17,0)" xlink:href="#q"/><use transform="matrix(0.05,0,0,0.05,27,0)" xlink:href="#t"/><use transform="matrix(0.05,0,0,0.05,32.95,0)" xlink:href="#u"/></g><g id="g"><use transform="matrix(0.05,0,0,0.05,0,0)" xlink:href="#r"/><use transform="matrix(0.05,0,0,0.05,10,0)" xlink:href="#u"/><use transform="matrix(0.05,0,0,0.05,20,0)" xlink:href="#B"/></g><g id="h"><use transform="matrix(0.05,0,0,0.05,0,0)" xlink:href="#w"/><use transform="matrix(0.05,0,0,0.05,9,0)" xlink:href="#o"/><use transform="matrix(0.05,0,0,0.05,14,0)" xlink:href="#v"/><use transform="matrix(0.05,0,0,0.05,24,0)" xlink:href="#o"/><use transform="matrix(0.05,0,0,0.05,29,0)" xlink:href="#u"/></g><g id="i"><use transform="matrix(0.05,0,0,0.05,0,0)" xlink:href="#E"/><use transform="matrix(0.05,0,0,0.05,10,0)" xlink:href="#w"/><use transform="matrix(0.05,0,0,0.05,19,0)" xlink:href="#u"/><use transform="matrix(0.05,0,0,0.05,29,0)" xlink:href="#t"/></g><g id="j"><use transform="matrix(0.05,0,0,0.05,0,0)" xlink:href="#p"/><use transform="matrix(0.05,0,0,0.05,3.95,0)" xlink:href="#r"/><use transform="matrix(0.05,0,0,0.05,13.949999999999998,0)" xlink:href="#o"/><use transform="matrix(0.05,0,0,0.05,18.95,0)" xlink:href="#u"/><use transform="matrix(0.05,0,0,0.05,28.950000000000003,0)" xlink:href="#t"/><use transform="matrix(0.05,0,0,0.05,34.9,0)" xlink:href="#v"/><use transform="matrix(0.05,0,0,0.05,44.9,0)" xlink:href="#n"/><use transform="matrix(0.05,0,0,0.05,53.900000000000006,0)" xlink:href="#o"/><use transform="matrix(0.05,0,0,0.05,58.900000000000006,0)" xlink:href="#p"/><use transform="matrix(0.05,0,0,0.05,62.85,0)" xlink:href="#q"/><use transform="matrix(0.05,0,0,0.05,72.85,0)" xlink:href="#r"/></g><path d="M30 0v-248h187v28H63v79h144v27H63v87h162V0H30" id="G"/><path d="M141 0L90-78 38 0H4l68-98-65-92h35l48 74 47-74h35l-64 92 68 98h-35" id="H"/><path d="M24 0v-261h32V0H24" id="I"/><g id="k"><use transform="matrix(0.05,0,0,0.05,0,0)" xlink:href="#G"/><use transform="matrix(0.05,0,0,0.05,12,0)" xlink:href="#H"/><use transform="matrix(0.05,0,0,0.05,21,0)" xlink:href="#o"/><use transform="matrix(0.05,0,0,0.05,26,0)" xlink:href="#u"/><use transform="matrix(0.05,0,0,0.05,36,0)" xlink:href="#t"/><use transform="matrix(0.05,0,0,0.05,41.95,0)" xlink:href="#r"/><use transform="matrix(0.05,0,0,0.05,51.95,0)" xlink:href="#v"/><use transform="matrix(0.05,0,0,0.05,61.95,0)" xlink:href="#I"/></g><path d="M30-248c87 1 191-15 191 75 0 78-77 80-158 76V0H30v-248zm33 125c57 0 124 11 124-50 0-59-68-47-124-48v98" id="J"/><path d="M33 0v-248h34V0H33" id="K"/><g id="l"><use transform="matrix(0.05,0,0,0.05,0,0)" xlink:href="#m"/><use transform="matrix(0.05,0,0,0.05,12,0)" xlink:href="#J"/><use transform="matrix(0.05,0,0,0.05,24,0)" xlink:href="#K"/></g></defs></g></svg>